<?xml version="1.0" encoding="utf-8"?>
<!DOCTYPE svg PUBLIC "-//W3C//DTD SVG 20010904//EN" "http://www.w3.org/TR/2001/REC-SVG-20010904/DTD/svg10.dtd">
<svg version="1.0" xmlns="http://www.w3.org/2000/svg" width="1200px" height="1200px" viewBox="0 0 1200 1200" preserveAspectRatio="xMidYMid meet">
 <g fill="#000000">
  <path d="M481.6 1053.4 c-248.6 -64.1 -452.1 -116.6 -452.2 -116.7 -0.2 -0.1 52.2 -204.3 116.4 -453.7 108 -419.4 116.9 -453.5 118.7 -453.2 5.1 0.9 904.1 232.5 904.8 233.1 0.4 0.4 -51.7 204.5 -115.8 453.5 -64.1 249 -116.5 452.9 -116.5 453.2 0 0.2 -0.8 0.4 -1.7 0.3 -1 -0.1 -205.2 -52.5 -453.7 -116.5z m185.1 -346.1 c30.2 -116.8 44.5 -173.4 44.2 -173.6 -0.7 -0.6 -177.1 -45.8 -177.4 -45.5 -0.6 0.9 -45.5 177.1 -45.2 177.4 0.5 0.6 173.9 45.3 175.8 45.3 1.1 0.1 2 -1.2 2.6 -3.6z"/>
 </g>
</svg>