<?xml version="1.0" encoding="UTF-8"?>
<!-- Generator: Adobe Illustrator 19.2.1, SVG Export Plug-In . SVG Version: 6.00 Build 0)  -->
<svg version="1.1" id="ROBLOX" xmlns="http://www.w3.org/2000/svg" xmlns:xlink="http://www.w3.org/1999/xlink" x="0px" y="0px" width="76px" height="76px" viewBox="0 0 76 76" style="enable-background:new 0 0 76 76;" xml:space="preserve">
<style type="text/css">
	.st0{fill:#E2231A;}
	.st1{fill:#FFFFFF;}
	.st2{fill:#E5E5E4;}
	.st3{fill:#353535;}
	.st4{fill:#515151;}
	.st5{fill:none;stroke:#515151;stroke-width:2;stroke-miterlimit:10;}
	.st6{fill:#9B9B9B;}
	.st7{fill:#CCCCCC;}
	.st8{fill:#727272;}
	.st9{fill:#333333;}
	.st10{fill:#FF9624;}
	.st11{fill:#FFC571;}
	.st12{fill:#493831;}
	.st13{fill:#FDEDCF;}
	.st14{fill:#E9AF65;}
	.st15{enable-background:new    ;}
	.st16{fill:none;stroke:#000000;stroke-width:0.75;stroke-miterlimit:10;}
	.st17{fill:none;stroke:#000000;stroke-width:1.6665;stroke-miterlimit:10;}
	.st18{fill:none;stroke:#E2231A;stroke-miterlimit:10;}
	.st19{fill:#686868;}
	.st20{fill:#8D8D8D;}
	.st21{fill:#434343;}
	.st22{fill:none;stroke:#90908F;stroke-miterlimit:10;}
	.st23{fill:none;stroke:#6C6C6C;stroke-miterlimit:10;}
	.st24{clip-path:url(#SVGID_2_);fill:#E2231A;}
	.st25{clip-path:url(#SVGID_4_);fill:#FFFFFF;}
	.st26{fill:#434343;stroke:#434343;stroke-width:2;stroke-linejoin:round;stroke-miterlimit:10;}
	.st27{fill:#90908F;}
	.st28{fill:#6C6C6C;}
	.st29{clip-path:url(#SVGID_6_);fill:#E2231A;}
	.st30{clip-path:url(#SVGID_8_);fill:#FFFFFF;}
	.st31{clip-path:url(#SVGID_10_);fill:#E2231A;}
	.st32{clip-path:url(#SVGID_12_);fill:#FFFFFF;}
</style>
<g>
	<path class="st0" d="M-910.5-1139.3l-11.3,43.8l43.8,11.3l11.3-43.8L-910.5-1139.3z M-891.1-1106.4l-8.5-2.2l2.2-8.5l8.5,2.2   L-891.1-1106.4z"/>
	<path class="st0" d="M-943.3-1134.4c11.4,0,16.4,6.8,16.4,13.5c0,4.2-1.8,7.7-5.2,10c4.9,5.5,7.8,13,8.7,21.7h-20.8   c-0.8-12-3.4-16.8-8.8-16.8v16.8h-20v-45.2H-943.3z M-952.9-1116.4h0.5c3.6,0,5.4-1.3,5.4-4.2c0-1.9-1-4.5-4.7-4.5h-1.2V-1116.4   L-952.9-1116.4z"/>
	<path class="st0" d="M-833.8-1134.4c14.6,0,17.5,7.4,17.5,12.6c0,3.7-1.3,7.1-5.9,9.7c5.7,3,7.1,6.5,7.1,10.4   c0,7-4.9,12.5-15.5,12.5h-31.6v-45.2H-833.8z M-842-1116.5h0.5c4.4,0,6-1.2,6-4.4c0-2.5-1.2-4.4-5.3-4.4h-1.2V-1116.5z    M-842-1099.1h0.6c4.6,0,6.4-1.3,6.4-4.7c0-3-1.4-5.1-5.6-5.1h-1.4V-1099.1z"/>
	<path class="st0" d="M-808.9-1134.4h20v33.9h17.5v11.3H-809v-45.2H-808.9z"/>
	<path class="st0" d="M-765.2-1134.4v45.2h45.2v-45.2H-765.2z M-738.2-1107.4h-8.8v-8.8h8.8V-1107.4z"/>
	<path class="st0" d="M-714.6-1134.4h21.9l6.7,8.3l6.4-8.3h21.7l-17.1,22.2l18.2,23h-21.9l-7.2-9l-6.9,9h-21.7l17.7-22.9   L-714.6-1134.4z"/>
</g>
<g>
	<path class="st0" d="M-301.9-1140.5l-21,81.6l81.6,21l21-81.6L-301.9-1140.5z M-265.6-1079.2l-15.9-4.1l4.1-15.9l15.9,4.1   L-265.6-1079.2z"/>
	<path class="st0" d="M-363-1131.4c21.3,0,30.7,12.7,30.7,25.2c0,7.8-3.4,14.4-9.6,18.7c9,10.3,14.6,24.2,16.3,40.4h-38.7   c-1.6-22.4-6.3-31.2-16.4-31.2v31.2H-418v-84.3L-363-1131.4L-363-1131.4z M-380.8-1097.8h1c6.8,0,10.1-2.5,10.1-7.9   c0-3.6-1.8-8.4-8.8-8.4h-2.3V-1097.8L-380.8-1097.8z"/>
	<path class="st0" d="M-158.8-1131.4c27.3,0,32.7,13.8,32.7,23.5c0,6.9-2.5,13.2-11,18.1c10.6,5.7,13.2,12.1,13.2,19.3   c0,13-9.2,23.3-28.8,23.3h-58.8v-84.3L-158.8-1131.4L-158.8-1131.4z M-174.2-1098h0.9c8.1,0,11.2-2.3,11.2-8.3   c0-4.6-2.3-8.1-9.8-8.1h-2.3L-174.2-1098L-174.2-1098z M-174.2-1065.7h1.1c8.6,0,11.9-2.4,11.9-8.7c0-5.5-2.6-9.5-10.4-9.5h-2.6   V-1065.7z"/>
	<path class="st0" d="M-112.5-1131.4h37.3v63.1h32.7v21.2h-70V-1131.4z"/>
	<path class="st0" d="M-31-1131.4v84.3h84.3v-84.3H-31z M19.3-1081H2.9v-16.4h16.4V-1081z"/>
	<path class="st0" d="M63.3-1131.4H104l12.4,15.5l11.9-15.5h40.5l-31.9,41.4l33.9,42.9H130l-13.3-16.8l-12.9,16.7H63.3l32.9-42.6   L63.3-1131.4z"/>
</g>
<g>
	<path d="M-910.5-1221l-11.3,43.8l43.8,11.3l11.3-43.8L-910.5-1221z M-891.1-1188.2l-8.5-2.2l2.2-8.5l8.5,2.2L-891.1-1188.2z"/>
	<path d="M-943.3-1216.1c11.4,0,16.4,6.8,16.4,13.5c0,4.2-1.8,7.7-5.2,10c4.9,5.5,7.8,13,8.7,21.7h-20.8c-0.8-12-3.4-16.8-8.8-16.8   v16.8h-20v-45.2H-943.3z M-952.9-1198.1h0.5c3.6,0,5.4-1.3,5.4-4.2c0-1.9-1-4.5-4.7-4.5h-1.2V-1198.1L-952.9-1198.1z"/>
	<path d="M-833.8-1216.1c14.6,0,17.5,7.4,17.5,12.6c0,3.7-1.3,7.1-5.9,9.7c5.7,3,7.1,6.5,7.1,10.4c0,7-4.9,12.5-15.5,12.5h-31.6   v-45.2H-833.8z M-842-1198.2h0.5c4.4,0,6-1.2,6-4.4c0-2.5-1.2-4.4-5.3-4.4h-1.2V-1198.2z M-842-1180.9h0.6c4.6,0,6.4-1.3,6.4-4.7   c0-3-1.4-5.1-5.6-5.1h-1.4V-1180.9z"/>
	<path d="M-808.9-1216.1h20v33.9h17.5v11.3H-809v-45.2H-808.9z"/>
	<path d="M-765.2-1216.1v45.2h45.2v-45.2H-765.2z M-738.2-1189.1h-8.8v-8.8h8.8V-1189.1z"/>
	<path d="M-714.6-1216.1h21.9l6.7,8.3l6.4-8.3h21.7l-17.2,22.2l18.2,23h-21.9l-7.2-9l-6.9,9h-21.7l17.7-22.9L-714.6-1216.1z"/>
</g>
<g>
	<path class="st1" d="M-910.7-1386l-11.3,43.9l43.9,11.3l11.3-43.9L-910.7-1386z M-891.3-1353l-8.6-2.2l2.2-8.6l8.6,2.2L-891.3-1353   z"/>
	<path class="st1" d="M-943.6-1381.1c11.4,0,16.5,6.8,16.5,13.6c0,4.2-1.8,7.7-5.2,10c4.9,5.5,7.8,13,8.8,21.7h-20.8   c-0.9-12-3.4-16.8-8.8-16.8v16.8h-20.1v-45.3H-943.6z M-953.2-1363h0.5c3.7,0,5.4-1.3,5.4-4.3c0-1.9-1-4.5-4.7-4.5h-1.2V-1363   L-953.2-1363z"/>
	<path class="st1" d="M-833.8-1381.1c14.7,0,17.6,7.4,17.6,12.7c0,3.7-1.3,7.1-5.9,9.7c5.7,3,7.1,6.5,7.1,10.4   c0,7-4.9,12.5-15.5,12.5h-31.6v-45.3H-833.8z M-842.1-1363.2h0.5c4.4,0,6-1.2,6-4.4c0-2.5-1.2-4.4-5.3-4.4h-1.2V-1363.2z    M-842.1-1345.8h0.6c4.6,0,6.4-1.3,6.4-4.7c0-3-1.4-5.1-5.6-5.1h-1.4V-1345.8z"/>
	<path class="st1" d="M-808.9-1381.1h20.1v33.9h17.6v11.4h-37.7V-1381.1L-808.9-1381.1z"/>
	<path class="st1" d="M-765.1-1381.1v45.3h45.3v-45.3H-765.1z M-738-1354h-8.8v-8.8h8.8V-1354z"/>
	<path class="st1" d="M-714.3-1381.1h21.9l6.7,8.3l6.4-8.3h21.8l-17.2,22.3l18.3,23.1h-22l-7.2-9l-6.9,9h-21.8l17.7-22.9   L-714.3-1381.1z"/>
</g>
<path class="st0" d="M-442.8-681.8c50.9,0,73.3,30.3,73.3,60.3c0,18.7-8.1,34.4-23,44.6c21.6,24.6,34.9,57.9,39,96.6H-446  c-3.8-53.6-15.2-74.7-39.2-74.7v74.7h-89.4v-201.6h131.8V-681.8z M-485.3-601.4h2.4c16.2,0,24.1-6,24.1-18.9c0-8.7-4.3-20-21.1-20  h-5.4V-601.4z"/>
<path class="st0" d="M-884.5-549.7c25.9,0,37.3,15.4,37.3,30.7c0,9.5-4.1,17.5-11.7,22.7c11,12.5,17.8,29.5,19.8,49.1h-47.1  c-1.9-27.2-7.7-38-20-38v38h-45.4v-102.5H-884.5L-884.5-549.7z M-906.1-508.8h1.2c8.3,0,12.2-3,12.2-9.6c0-4.4-2.2-10.2-10.7-10.2  h-2.8L-906.1-508.8L-906.1-508.8z"/>
<path class="st0" d="M-890.6-348.6c12.2,0,17.7,7.3,17.7,14.5c0,4.5-2,8.3-5.5,10.7c5.2,5.9,8.4,13.9,9.4,23.3h-22.3  c-0.9-12.9-3.6-18-9.4-18v18h-21.5v-48.5H-890.6z M-900.8-329.3h0.6c3.9,0,5.8-1.4,5.8-4.6c0-2.1-1-4.8-5.1-4.8h-1.3V-329.3z"/>
<g>
	<path class="st0" d="M-914.1-954.9l-8.6,33.5l33.5,8.6l8.6-33.5L-914.1-954.9z M-899.3-929.7l-6.5-1.7l1.7-6.5l6.5,1.7   L-899.3-929.7z"/>
	<path class="st0" d="M-939.3-951.2c8.7,0,12.6,5.2,12.6,10.4c0,3.2-1.4,5.9-3.9,7.7c3.7,4.2,6,9.9,6.7,16.6h-15.9   c-0.7-9.2-2.6-12.8-6.7-12.8v12.8h-15.3v-34.6h22.5V-951.2z M-946.6-937.4h0.4c2.8,0,4.1-1,4.1-3.3c0-1.5-0.7-3.4-3.6-3.4h-0.9   V-937.4z"/>
	<path class="st0" d="M-855.4-951.2c11.2,0,13.4,5.7,13.4,9.7c0,2.8-1,5.4-4.5,7.4c4.4,2.3,5.4,5,5.4,7.9c0,5.3-3.8,9.6-11.8,9.6   h-24.2v-34.6L-855.4-951.2L-855.4-951.2z M-861.7-937.5h0.4c3.3,0,4.6-0.9,4.6-3.4c0-1.9-0.9-3.3-4-3.3h-0.9v6.7H-861.7z    M-861.7-924.2h0.5c3.5,0,4.9-1,4.9-3.6c0-2.3-1.1-3.9-4.3-3.9h-1.1V-924.2L-861.7-924.2z"/>
	<path class="st0" d="M-836.4-951.2h15.3v25.9h13.4v8.7h-28.8v-34.6H-836.4z"/>
	<path class="st0" d="M-802.9-951.2v34.6h34.6v-34.6H-802.9z M-782.2-930.5h-6.8v-6.8h6.8V-930.5z"/>
	<path class="st0" d="M-764.2-951.2h16.7l5.1,6.4l4.9-6.4h16.6l-13.1,17l13.9,17.6h-16.8l-5.5-6.9l-5.3,6.9h-16.6l13.5-17.5   L-764.2-951.2z"/>
</g>
<path class="st0" d="M-815-662.7c11.3,0,16.3,6.7,16.3,13.4c0,4.1-1.8,7.6-5.1,9.9c4.8,5.5,7.7,12.8,8.6,21.4h-20.5  c-0.8-11.9-3.4-16.6-8.7-16.6v16.6h-19.8v-44.7H-815L-815-662.7z M-824.4-644.9h0.5c3.6,0,5.3-1.3,5.3-4.2c0-1.9-1-4.4-4.7-4.4h-1.2  v8.6H-824.4z"/>
<path class="st0" d="M-886.1-658.4c9.1,0,13.1,5.4,13.1,10.8c0,3.3-1.5,6.1-4.1,8c3.9,4.4,6.2,10.4,7,17.3h-16.6  c-0.7-9.6-2.7-13.4-7-13.4v13.4h-16v-36.1H-886.1L-886.1-658.4z M-893.7-644h0.4c2.9,0,4.3-1.1,4.3-3.4c0-1.5-0.8-3.6-3.8-3.6h-1  L-893.7-644L-893.7-644z"/>
<path class="st1" d="M-946.7-649.9c4.8,0,6.9,2.9,6.9,5.7c0,1.8-0.8,3.2-2.2,4.2c2,2.3,3.3,5.5,3.7,9.1h-8.7c-0.4-5-1.4-7-3.7-7v7  h-8.4v-19L-946.7-649.9L-946.7-649.9z M-950.7-642.3h0.2c1.5,0,2.3-0.6,2.3-1.8c0-0.8-0.4-1.9-2-1.9h-0.5V-642.3z"/>
<path class="st0" d="M-809-1049.7c16.2,0,23.3,9.6,23.3,19.2c0,5.9-2.6,10.9-7.3,14.2c6.9,7.8,11.1,18.4,12.4,30.7H-810  c-1.2-17-4.8-23.7-12.5-23.7v23.7h-28.4v-64L-809-1049.7L-809-1049.7z M-822.5-1024.2h0.8c5.2,0,7.7-1.9,7.7-6  c0-2.8-1.4-6.4-6.7-6.4h-1.7v12.4H-822.5z"/>
<path d="M-927.5-905.3h4.7c2.7,0,4.5,1.4,4.5,3.8l0,0c0,2.6-2,3.9-4.7,3.9h-1.5v3.1h-3V-905.3z M-923-899.9c1.1,0,1.7-0.6,1.7-1.4  l0,0c0-0.9-0.7-1.4-1.7-1.4h-1.4v2.9L-923-899.9L-923-899.9z"/>
<path d="M-917.6-898.6L-917.6-898.6c0-2.4,2-4.4,4.7-4.4s4.6,2,4.6,4.4l0,0c0,2.4-2,4.4-4.7,4.4  C-915.6-894.2-917.6-896.2-917.6-898.6z M-911.1-898.6L-911.1-898.6c0-1.1-0.8-1.9-1.8-1.9c-1.1,0-1.8,0.9-1.8,1.9l0,0  c0,1,0.7,1.9,1.8,1.9S-911.1-897.6-911.1-898.6z"/>
<path d="M-908-902.8h2.9l1.1,4.2l1.3-4.3h2.4l1.3,4.3l1.1-4.3h2.9l-2.6,8.5h-2.6l-1.4-4.4l-1.4,4.4h-2.5L-908-902.8z"/>
<path d="M-894.7-898.6L-894.7-898.6c0-2.5,1.8-4.4,4.3-4.4c2.9,0,4.2,2.1,4.2,4.6c0,0.2,0,0.4,0,0.6h-5.6c0.2,0.9,0.9,1.4,1.8,1.4  c0.7,0,1.3-0.3,1.9-0.9l1.6,1.4c-0.8,1-2,1.7-3.6,1.7C-892.8-894.2-894.7-896-894.7-898.6z M-889-899.3c-0.1-0.9-0.7-1.5-1.5-1.5  s-1.3,0.6-1.5,1.5H-889z"/>
<path d="M-884.9-902.8h3v1.7c0.5-1.2,1.3-1.9,2.7-1.8v3.1h-0.2c-1.5,0-2.4,0.9-2.4,2.8v2.6h-3L-884.9-902.8L-884.9-902.8z"/>
<path d="M-878.2-905.8h3.1v2.2h-3.1V-905.8z M-878.2-902.8h2.9v8.4h-2.9V-902.8z"/>
<path d="M-873.6-902.8h3v1.2c0.5-0.7,1.3-1.4,2.5-1.4c1.8,0,2.9,1.2,2.9,3.1v5.5h-2.9v-4.6c0-0.9-0.5-1.4-1.2-1.4s-1.2,0.5-1.2,1.4  v4.6h-3L-873.6-902.8L-873.6-902.8z"/>
<path d="M-863.7-892.9l1-2c0.9,0.5,1.8,0.8,2.9,0.8c1.5,0,2.2-0.7,2.2-2.1v-0.3c-0.6,0.7-1.4,1.3-2.6,1.3c-2.1,0-3.8-1.5-3.8-3.9  l0,0c0-2.4,1.7-3.9,3.6-3.9c1.3,0,2,0.5,2.6,1.2v-1h3v6.4c0,1.5-0.3,2.6-1.1,3.4c-0.8,0.8-1.9,1.2-3.7,1.2  C-861.2-891.9-862.5-892.2-863.7-892.9z M-857.6-899.1L-857.6-899.1c0-1-0.7-1.7-1.7-1.7s-1.7,0.7-1.7,1.7l0,0  c0,0.9,0.7,1.6,1.7,1.6C-858.4-897.4-857.6-898.1-857.6-899.1z"/>
<path d="M-848.6-905.3h3v10.9h-3V-905.3z"/>
<path d="M-843.7-902.8h3v1.2c0.5-0.7,1.3-1.3,2.5-1.3c1.1,0,2,0.5,2.4,1.4c0.7-0.8,1.6-1.4,2.8-1.4c1.8,0,2.9,1.1,2.9,3.1v5.5h-3  v-4.6c0-0.9-0.5-1.4-1.2-1.4s-1.2,0.5-1.2,1.4v4.6h-2.9v-4.6c0-0.9-0.5-1.4-1.2-1.4s-1.2,0.5-1.2,1.4v4.6h-3L-843.7-902.8  L-843.7-902.8z"/>
<path d="M-829-896.8L-829-896.8c0-1.8,1.3-2.7,3.3-2.7c0.8,0,1.5,0.1,2,0.3v-0.1c0-0.9-0.5-1.4-1.7-1.4c-0.9,0-1.6,0.2-2.3,0.5  l-0.6-2.1c1-0.4,2-0.7,3.4-0.7c1.5,0,2.5,0.4,3.2,1c0.6,0.6,0.9,1.5,0.9,2.7v4.8h-2.9v-0.9c-0.6,0.6-1.4,1.1-2.5,1.1  C-827.8-894.2-829-895.2-829-896.8z M-823.6-897.5v-0.4c-0.3-0.1-0.7-0.2-1.2-0.2c-0.9,0-1.4,0.4-1.4,1l0,0c0,0.6,0.4,0.9,1,0.9  C-824.3-896.1-823.6-896.6-823.6-897.5z"/>
<path d="M-819.3-892.9l1-2c0.9,0.5,1.8,0.8,2.9,0.8c1.5,0,2.2-0.7,2.2-2.1v-0.3c-0.6,0.7-1.4,1.3-2.6,1.3c-2.1,0-3.8-1.5-3.8-3.9  l0,0c0-2.4,1.7-3.9,3.6-3.9c1.3,0,2,0.5,2.6,1.2v-1h3v6.4c0,1.5-0.3,2.6-1.1,3.4c-0.8,0.8-1.9,1.2-3.7,1.2  C-816.7-891.9-818.1-892.2-819.3-892.9z M-813.2-899.1L-813.2-899.1c0-1-0.7-1.7-1.7-1.7s-1.7,0.7-1.7,1.7l0,0  c0,0.9,0.7,1.6,1.7,1.6S-813.2-898.1-813.2-899.1z"/>
<path d="M-808.7-905.8h3.1v2.2h-3.1V-905.8z M-808.7-902.8h2.9v8.4h-2.9V-902.8z"/>
<path d="M-804-902.8h3v1.2c0.5-0.7,1.3-1.4,2.5-1.4c1.8,0,2.9,1.2,2.9,3.1v5.5h-2.9v-4.6c0-0.9-0.5-1.4-1.2-1.4  c-0.7,0-1.2,0.5-1.2,1.4v4.6h-3v-8.4H-804z"/>
<path d="M-794.6-896.8L-794.6-896.8c0-1.8,1.3-2.7,3.3-2.7c0.8,0,1.5,0.1,2,0.3v-0.1c0-0.9-0.5-1.4-1.7-1.4c-0.9,0-1.6,0.2-2.3,0.5  l-0.6-2.1c1-0.4,2-0.7,3.4-0.7c1.5,0,2.5,0.4,3.2,1c0.6,0.6,0.9,1.5,0.9,2.7v4.8h-2.9v-0.9c-0.6,0.6-1.4,1.1-2.5,1.1  C-793.4-894.2-794.6-895.2-794.6-896.8z M-789.2-897.5v-0.4c-0.3-0.1-0.7-0.2-1.2-0.2c-0.9,0-1.4,0.4-1.4,1l0,0c0,0.6,0.4,0.9,1,0.9  C-789.8-896.1-789.2-896.6-789.2-897.5z"/>
<path d="M-784.4-897v-3.4h-1v-2.4h1v-2.1h2.9v2.1h2v2.4h-2v2.9c0,0.6,0.3,0.8,0.8,0.8c0.4,0,0.8-0.1,1.1-0.3v2.3  c-0.5,0.3-1.2,0.5-2.1,0.5C-783.3-894.2-784.4-895-784.4-897z"/>
<path d="M-778.2-905.8h3.1v2.2h-3.1V-905.8z M-778.1-902.8h2.9v8.4h-2.9V-902.8z"/>
<path d="M-773.8-898.6L-773.8-898.6c0-2.4,2-4.4,4.7-4.4c2.7,0,4.6,2,4.6,4.4l0,0c0,2.4-2,4.4-4.7,4.4  C-771.9-894.2-773.8-896.2-773.8-898.6z M-767.4-898.6L-767.4-898.6c0-1.1-0.8-1.9-1.8-1.9c-1.1,0-1.8,0.9-1.8,1.9l0,0  c0,1,0.7,1.9,1.8,1.9C-768.1-896.7-767.4-897.6-767.4-898.6z"/>
<path d="M-763.3-902.8h3v1.2c0.5-0.7,1.3-1.4,2.5-1.4c1.8,0,2.9,1.2,2.9,3.1v5.5h-2.9v-4.6c0-0.9-0.5-1.4-1.2-1.4s-1.2,0.5-1.2,1.4  v4.6h-3L-763.3-902.8L-763.3-902.8z"/>
<path d="M-754.1-905.3h-0.8v-0.7h2.4v0.7h-0.8v2.1h-0.8C-754.1-903.2-754.1-905.3-754.1-905.3z M-752.1-906h0.8l0.7,1.1l0.7-1.1h0.8  v2.8h-0.8v-1.6l-0.7,1.1l0,0l-0.7-1.1v1.6h-0.8V-906z"/>
<path class="st0" d="M-1880.2-942.5l-32.4,126l126,32.4l32.4-126L-1880.2-942.5z M-1824.3-847.9l-24.6-6.3l6.3-24.6l24.6,6.3  L-1824.3-847.9z"/>
<path class="st0" d="M-1974.6-928.4c32.8,0,47.3,19.6,47.3,38.9c0,12-5.2,22.2-14.8,28.8c14,15.9,22.5,37.4,25.1,62.3h-59.7  c-2.4-34.6-9.8-48.2-25.3-48.2v48.2h-57.6v-130.1L-1974.6-928.4L-1974.6-928.4z M-2002-876.5h1.6c10.5,0,15.5-3.8,15.5-12.2  c0-5.6-2.8-12.9-13.6-12.9h-3.5V-876.5z"/>
<path class="st0" d="M-1659.4-928.4c42.1,0,50.5,21.3,50.5,36.3c0,10.6-3.8,20.4-16.9,27.9c16.4,8.7,20.4,18.7,20.4,29.9  c0,20.1-14.1,36-44.5,36h-90.8v-130.1H-1659.4z M-1683.2-876.9h1.4c12.6,0,17.3-3.5,17.3-12.7c0-7.2-3.5-12.6-15.2-12.6h-3.5  L-1683.2-876.9L-1683.2-876.9z M-1683.2-827h1.7c13.3,0,18.3-3.7,18.3-13.4c0-8.6-4-14.7-16.1-14.7h-4L-1683.2-827L-1683.2-827z"/>
<path class="st0" d="M-1587.9-928.4h57.6v97.4h50.5v32.6h-108.1V-928.4z"/>
<path class="st0" d="M-1462.2-928.4v130.1h130.1v-130.1H-1462.2z M-1384.4-850.7h-25.4v-25.4h25.4V-850.7z"/>
<path class="st0" d="M-1316.6-928.4h62.8l19.2,23.9l18.3-23.9h62.5l-49.2,63.9l52.4,66.2h-63l-20.6-25.8l-19.9,25.8h-62.5l50.8-65.8  L-1316.6-928.4z"/>
<path class="st1" d="M-1930.2-756.1h17.6c10.3,0,17,5.3,17,14.3v0.1c0,9.7-7.4,14.8-17.6,14.8h-5.7v11.7h-11.4L-1930.2-756.1  L-1930.2-756.1z M-1913.4-735.7c4,0,6.5-2.2,6.5-5.4v-0.1c0-3.5-2.5-5.3-6.6-5.3h-5.4v10.8H-1913.4z"/>
<path class="st1" d="M-1893-730.8v-0.1c0-9,7.4-16.6,17.5-16.6s17.5,7.4,17.5,16.5v0.1c0,9-7.4,16.6-17.6,16.6  C-1885.7-714.3-1893-721.8-1893-730.8z M-1868.8-730.8v-0.1c0-3.9-2.9-7.2-6.8-7.2c-4,0-6.6,3.2-6.6,7.1v0.1c0,3.9,2.8,7.1,6.7,7.1  C-1871.4-723.8-1868.8-727-1868.8-730.8z"/>
<path class="st1" d="M-1857-746.8h10.8l4.2,15.9l4.9-16h9.1l4.9,16.2l4.3-16h10.7l-9.8,31.9h-9.6l-5.2-16.5l-5.3,16.5h-9.5  L-1857-746.8z"/>
<path class="st1" d="M-1807.1-730.8v-0.1c0-9.3,6.6-16.6,16-16.6c10.9,0,15.9,8,15.9,17.3c0,0.7,0,1.5-0.1,2.3h-21.2  c0.9,3.5,3.4,5.2,6.9,5.2c2.7,0,4.7-1,7-3.2l6.1,5.1c-3,3.9-7.4,6.4-13.7,6.4C-1800-714.3-1807.1-721-1807.1-730.8z M-1785.5-733.5  c-0.4-3.5-2.5-5.7-5.6-5.7c-2.9,0-4.9,2.2-5.5,5.7H-1785.5z"/>
<path class="st1" d="M-1770.4-746.8h11.1v6.4c1.8-4.3,4.7-7.1,10-6.9v11.7h-0.9c-5.8,0-9.1,3.3-9.1,10.6v9.9h-11.1V-746.8z"/>
<path class="st1" d="M-1745.2-757.8h11.5v8.2h-11.5V-757.8z M-1745-746.8h11.1v31.7h-11.1V-746.8z"/>
<path class="st1" d="M-1727.7-746.8h11.1v4.5c2-2.6,5-5.2,9.5-5.2c6.7,0,10.8,4.5,10.8,11.7v20.7h-11.1v-17.2c0-3.5-1.8-5.4-4.5-5.4  s-4.7,1.9-4.7,5.4v17.2h-11.1L-1727.7-746.8L-1727.7-746.8z"/>
<path class="st1" d="M-1690.8-709.2l3.6-7.4c3.4,1.9,6.8,3,11.1,3c5.5,0,8.3-2.8,8.3-7.8v-1.2c-2.2,2.6-5.2,4.7-9.7,4.7  c-7.8,0-14.1-5.6-14.1-14.7v-0.1c0-9.1,6.4-14.8,13.7-14.8c4.8,0,7.6,1.9,10,4.5v-3.7h11.1v24.1c0,5.8-1.3,9.9-4.1,12.6  c-2.9,2.9-7.3,4.5-13.9,4.5C-1681.1-705.6-1686.2-706.9-1690.8-709.2z M-1667.8-732.6L-1667.8-732.6c0-3.6-2.8-6.2-6.5-6.2  c-3.8,0-6.5,2.6-6.5,6.2v0.1c0,3.5,2.7,6.1,6.5,6.1C-1670.5-726.5-1667.8-729.1-1667.8-732.6z"/>
<path class="st1" d="M-1633.8-756.1h11.4v41h-11.4V-756.1z"/>
<path class="st1" d="M-1615.6-746.8h11.1v4.3c2-2.6,5-5,9.4-5c4.2,0,7.4,1.9,9.1,5.2c2.8-3.2,6-5.2,10.6-5.2  c6.7,0,10.8,4.2,10.8,11.6v20.8h-11.1v-17.2c0-3.5-1.7-5.3-4.3-5.3s-4.6,1.9-4.6,5.3v17.2h-11.1v-17.2c0-3.5-1.8-5.3-4.4-5.3  s-4.5,1.9-4.5,5.3v17.2h-11.1L-1615.6-746.8L-1615.6-746.8z"/>
<path class="st1" d="M-1560.2-724.2L-1560.2-724.2c0-6.7,5-10.1,12.4-10.1c2.9,0,5.8,0.5,7.6,1.2v-0.5c0-3.3-2-5.2-6.3-5.2  c-3.3,0-5.9,0.7-8.8,1.8l-2.3-7.8c3.6-1.5,7.4-2.5,12.8-2.5c5.7,0,9.5,1.3,12.1,3.9c2.4,2.3,3.4,5.6,3.4,10.1v18.2h-11v-3.3  c-2.2,2.4-5.2,4-9.4,4C-1555.7-714.4-1560.2-717.9-1560.2-724.2z M-1540.1-726.6v-1.5c-1.2-0.5-2.8-0.8-4.4-0.8  c-3.2,0-5.1,1.5-5.1,3.9v0.1c0,2.2,1.6,3.5,3.9,3.5C-1542.4-721.4-1540.1-723.4-1540.1-726.6z"/>
<path class="st1" d="M-1523.9-709.2l3.6-7.4c3.4,1.9,6.8,3,11.1,3c5.5,0,8.3-2.8,8.3-7.8v-1.2c-2.2,2.6-5.2,4.7-9.7,4.7  c-7.8,0-14.1-5.6-14.1-14.7v-0.1c0-9.1,6.4-14.8,13.7-14.8c4.8,0,7.6,1.9,10,4.5v-3.7h11.1v24.1c0,5.8-1.3,9.9-4.1,12.6  c-2.9,2.9-7.3,4.5-13.9,4.5C-1514.2-705.6-1519.3-706.9-1523.9-709.2z M-1500.9-732.6L-1500.9-732.6c0-3.6-2.8-6.2-6.5-6.2  c-3.8,0-6.5,2.6-6.5,6.2v0.1c0,3.5,2.7,6.1,6.5,6.1C-1503.6-726.5-1500.9-729.1-1500.9-732.6z"/>
<path class="st1" d="M-1484-757.8h11.5v8.2h-11.5V-757.8z M-1483.8-746.8h11.1v31.7h-11.1V-746.8z"/>
<path class="st1" d="M-1466.4-746.8h11.1v4.5c2-2.6,5-5.2,9.5-5.2c6.7,0,10.8,4.5,10.8,11.7v20.7h-11.1v-17.2c0-3.5-1.8-5.4-4.5-5.4  c-2.7,0-4.7,1.9-4.7,5.4v17.2h-11.1V-746.8z"/>
<path class="st1" d="M-1430.8-724.2L-1430.8-724.2c0-6.7,5-10.1,12.4-10.1c2.9,0,5.8,0.5,7.6,1.2v-0.5c0-3.3-2-5.2-6.3-5.2  c-3.3,0-5.9,0.7-8.8,1.8l-2.3-7.8c3.6-1.5,7.4-2.5,12.8-2.5c5.7,0,9.5,1.3,12.1,3.9c2.4,2.3,3.4,5.6,3.4,10.1v18.2h-11v-3.3  c-2.2,2.4-5.2,4-9.4,4C-1426.3-714.4-1430.8-717.9-1430.8-724.2z M-1410.7-726.6v-1.5c-1.2-0.5-2.8-0.8-4.4-0.8  c-3.2,0-5.1,1.5-5.1,3.9v0.1c0,2.2,1.6,3.5,3.9,3.5C-1413-721.4-1410.7-723.4-1410.7-726.6z"/>
<path class="st1" d="M-1392.5-724.9v-13h-3.7v-8.9h3.7v-8h11.1v8h7.4v8.9h-7.4v10.8c0,2.2,1,3.2,3,3.2c1.5,0,2.9-0.4,4.2-1.1v8.7  c-2,1.1-4.6,1.9-7.7,1.9C-1388.6-714.5-1392.5-717.4-1392.5-724.9z"/>
<path class="st1" d="M-1369.2-757.8h11.5v8.2h-11.5V-757.8z M-1369-746.8h11.1v31.7h-11.1V-746.8z"/>
<path class="st1" d="M-1352.9-730.8v-0.1c0-9,7.4-16.6,17.5-16.6s17.5,7.4,17.5,16.5v0.1c0,9-7.4,16.6-17.6,16.6  C-1345.6-714.3-1352.9-721.8-1352.9-730.8z M-1328.7-730.8v-0.1c0-3.9-2.9-7.2-6.8-7.2c-4,0-6.6,3.2-6.6,7.1v0.1  c0,3.9,2.8,7.1,6.7,7.1C-1331.3-723.8-1328.7-727-1328.7-730.8z"/>
<path class="st1" d="M-1313.2-746.8h11.1v4.5c2-2.6,5-5.2,9.5-5.2c6.7,0,10.8,4.5,10.8,11.7v20.7h-11.1v-17.2c0-3.5-1.8-5.4-4.5-5.4  c-2.7,0-4.7,1.9-4.7,5.4v17.2h-11.1V-746.8z"/>
<path class="st1" d="M-1278.9-755.9h-3.1v-2.6h9.2v2.6h-3.1v8h-2.9v-8H-1278.9z M-1271.1-758.5h3.1l2.5,4.1l2.5-4.1h3.1v10.5h-2.9  v-6.2l-2.7,4.2h-0.1l-2.7-4.2v6.2h-2.8L-1271.1-758.5L-1271.1-758.5z"/>
<path class="st2" d="M-772.7-776.3c0,2.6-8.6,4.8-19.1,4.8c-10.6,0-19.1-2.2-19.1-4.8c0-2.6,8.6-4.9,19.2-4.9  S-772.7-779-772.7-776.3z"/>
<g>
	<g>
		<path class="st3" d="M-756.2-812.3c0,27.4-35.9,35.8-35.9,35.8S-828-785-828-812.3c0-9.4,0-32,0-32s12.8-3.8,35.9-3.8    s35.8,3.8,35.8,3.8S-756.2-819.2-756.2-812.3z"/>
		<path class="st4" d="M-791.9-848.2c23,0,35,3.8,35,3.8s0,25.2,0,32c0,27.4-35,35.8-35,35.8V-848.2z"/>
		<g>
			<g>
				<path d="M-792.1-840.2c12.8,0,22.2,1.2,27.8,2.2c0,7.9,0,21,0,25.6c0,8.1-4.4,15.2-13.1,20.8c-5.8,3.8-11.8,5.9-14.6,6.7      c-6.4-2-27.9-10.1-27.9-27.5v-25.5C-814.9-838.9-804.9-840.2-792.1-840.2 M-792.1-848.2c-23,0-35.8,3.8-35.8,3.8s0,22.6,0,32      c0,27.1,35.8,35.8,35.8,35.8l0,0c0.5,0,35.8-8.5,35.8-35.8c0-6.8,0-32,0-32S-769.1-848.2-792.1-848.2L-792.1-848.2z"/>
			</g>
		</g>
		<path class="st5" d="M-792.1-844.4c-16.3,0.2-26.7,2.3-31.7,3.1v29c0,23.1,29,31.1,31.7,31.9l2.7-0.8"/>
		<g>
			<path class="st3" d="M-792.1-779.5l0.1-2c0.6-0.2,1.1-0.3,2.3-0.7c8.7-2.9,28.9-11.5,28.9-30.2v-27.7c-5.4-1.1-16-3.3-31-3.3v-2     c16,0,26.9,2.3,32.1,3.4l0.9,0.2v29.4c0,20-21.2,29.1-30.3,32.1C-790.3-779.9-791.5-779.7-792.1-779.5z"/>
		</g>
	</g>
	<path class="st0" d="M-785.9-841.6c13.1,0,18.9,7.8,18.9,15.5c0,4.8-2.1,8.8-5.9,11.5c5.6,6.3,9,14.9,10,24.8h-23.8   c-1-13.8-3.9-19.2-10.1-19.2v19.2h-23v-51.9L-785.9-841.6L-785.9-841.6z M-796.8-820.9h0.6c4.2,0,6.2-1.5,6.2-4.9   c0-2.2-1.1-5.2-5.4-5.2h-1.4V-820.9L-796.8-820.9z"/>
</g>
<path class="st2" d="M-693.1-778c0,2.6-8.6,4.8-19.1,4.8s-19.1-2.2-19.1-4.8s8.6-4.9,19.2-4.9C-701.5-782.9-693.1-780.6-693.1-778z"/>
<g>
	<g>
		<path class="st6" d="M-676.5-814c0,27.4-35.7,35.8-35.7,35.8s-35.7-8.5-35.7-35.8c0-9.4,0-32,0-32s12.7-3.8,35.7-3.8    s35.7,3.8,35.7,3.8S-676.5-820.8-676.5-814z"/>
		<path class="st7" d="M-711.9-849.8c23,0,35,3.8,35,3.8s0,25.2,0,32c0,27.4-35,35.8-35,35.8V-849.8z"/>
		<g>
			<g>
				<path class="st8" d="M-712.2-841.8c12.8,0,22.2,1.2,27.7,2.2c0,7.9,0,21-0.1,25.6c0,8.1-4.4,15.2-13.1,20.8      c-5.8,3.8-11.7,5.9-14.4,6.7c-6.4-2-27.7-10.1-27.7-27.5v-25.6C-734.9-840.6-725-841.8-712.2-841.8 M-712.2-849.8      c-23,0-35.6,3.8-35.6,3.8s0,22.6,0,32c0,27.1,35.6,35.8,35.6,35.8h-0.1c0.5,0,35.7-8.5,35.8-35.8c0-6.8,0.1-32,0.1-32      S-689.2-849.8-712.2-849.8L-712.2-849.8z"/>
			</g>
		</g>
		<g>
			<path class="st7" d="M-712.5-781.1l-0.3-0.2c-7.5-2.2-32-11.2-32-32.8V-844l2.4-0.4c5.4-0.9,15.6-2.7,30.6-2.8v2     c-15,0.2-24.9,1.9-30.2,2.8l-0.8,0.1v28.2c0,20.2,23.2,28.7,30.5,30.8l2.3-0.7l0.5,1.9L-712.5-781.1z"/>
		</g>
		<g>
			<path class="st6" d="M-712.4-781.1l0.1-2c0.6-0.2,1.3-0.3,2.4-0.7c8.7-2.9,29-11.5,29-30.2v-27.7c-6-1.1-16-3.3-31-3.3v-2     c16,0,26.9,2.3,32.1,3.4l0.9,0.2v29.4c0,20-21.3,29.1-30.4,32.1C-710.5-781.6-711.8-781.3-712.4-781.1z"/>
		</g>
	</g>
	<path class="st0" d="M-705.2-843.2c13.1,0,18.9,7.8,18.9,15.5c0,4.8-2.1,8.8-5.9,11.5c5.6,6.3,9,14.9,10,24.8H-706   c-1-13.8-3.9-19.2-10.1-19.2v19.2h-23v-51.9L-705.2-843.2L-705.2-843.2z M-716.2-822.6h0.6c4.2,0,6.2-1.5,6.2-4.9   c0-2.2-1.1-5.2-5.4-5.2h-1.4C-716.2-832.7-716.2-822.6-716.2-822.6z"/>
</g>
<g>
	<path class="st2" d="M-696.7-435.9c0,5-16.1,9.1-36,9.1c-19.9,0-35.9-4.1-35.9-9.1s16.2-9.3,36-9.3S-696.7-440.8-696.7-435.9z"/>
	<path class="st6" d="M-665.6-503.5c0,51.6-67.1,67.3-67.1,67.3s-67.1-16.1-67.1-67.3c0-17.7,0-60.2,0-60.2s23.8-7.2,67.1-7.2   s67.2,7.2,67.2,7.2S-665.6-516.4-665.6-503.5z"/>
	<path class="st7" d="M-732.1-570.9c43.2,0,65.8,7.2,65.8,7.2s0,47.3,0,60.2c0,51.6-65.8,67.3-65.8,67.3V-570.9z"/>
	<g>
		<path class="st8" d="M-732.8-565.3c31.9,0,53.1,4,61.5,5.9c0,12-0.1,45.3-0.1,55.8c0,43.5-53.3,59.4-61.3,61.5    c-8.8-2.5-61.5-19.2-61.5-61.5v-55.8C-786.6-561.2-764.7-565.3-732.8-565.3 M-732.8-570.9c-43.3,0-67,7.2-67,7.2s0,42.5,0,60.2    c0,51,67,67.3,67,67.3h-0.2c0.9,0,67.2-15.9,67.2-67.4c0-12.8,0.1-60.2,0.1-60.2S-689.5-570.9-732.8-570.9L-732.8-570.9z"/>
	</g>
	<g>
		<path class="st7" d="M-733.3-441.6l-0.6-0.3c-14.2-4.2-60.2-21-60.2-61.6v-56.1l4.5-0.8c10.2-1.8,29.3-5,57.5-5.4v3.8    c-28.2,0.3-46.8,3.6-56.9,5.3l-1.4,0.2v52.9c0,38,43.7,54,57.4,58l5.3,2.3L-733.3-441.6z"/>
	</g>
	<g>
		<path class="st6" d="M-733.3-441.6l0.3-4c1.2-0.3,2.4-0.6,4.6-1.3c16.3-5.4,54.6-21.7,54.6-56.8v-52.2    c-11.3-2.1-30.1-6.1-58.3-6.1v-3.8c30.1,0,50.5,4.4,60.4,6.5l1.6,0.4v55.2c0,37.6-40.1,54.7-57.2,60.4    C-729.4-442.7-732.1-442-733.3-441.6z"/>
	</g>
	<path class="st0" d="M-721-558.9c24.6,0,35.5,14.8,35.5,29.4c0,9-3.9,16.7-11.1,21.6c10.5,11.9,16.9,28,18.8,46.8h-44.8   c-1.8-26.3-7.6-36.1-18.9-36.1v36.1h-43.2v-97.8H-721z M-741.5-519.4h1.1c7.9,0,11.6-2.9,11.6-9.1c0-4.2-2.1-9.7-10.2-9.7h-2.5   V-519.4z"/>
</g>
<path class="st2" d="M-616.1-778c0,2.6-8.6,4.8-19.1,4.8s-19.1-2.2-19.1-4.8s8.6-4.9,19.2-4.9C-624.5-782.9-616.1-780.6-616.1-778z"/>
<g>
	<g>
		<path class="st6" d="M-599.5-814c0,27.4-35.7,35.8-35.7,35.8s-35.7-8.5-35.7-35.8c0-9.4,0-32,0-32s12.7-3.8,35.7-3.8    s35.7,3.8,35.7,3.8S-599.5-820.8-599.5-814z"/>
		<path class="st7" d="M-634.9-849.8c23,0,35,3.8,35,3.8s0,25.2,0,32c0,27.4-35,35.8-35,35.8S-634.9-849.8-634.9-849.8z"/>
		<g>
			<g>
				<path class="st9" d="M-635.2-841.8c12.8,0,22.2,1.2,27.7,2.2c0,7.9,0,21-0.1,25.6c0,8.1-4.4,15.2-13.1,20.8      c-5.8,3.8-11.7,5.9-14.4,6.7c-6.4-2-27.7-10.1-27.7-27.5v-25.6C-657.9-840.6-648-841.8-635.2-841.8 M-635.2-849.8      c-23,0-35.6,3.8-35.6,3.8s0,22.6,0,32c0,27.1,35.6,35.8,35.6,35.8h-0.1c0.5,0,35.7-8.5,35.8-35.8c0-6.8,0.1-32,0.1-32      S-612.2-849.8-635.2-849.8L-635.2-849.8z"/>
			</g>
		</g>
		<g>
			<path class="st7" d="M-635.5-781.1l-0.3-0.2c-7.5-2.2-32-11.2-32-32.8V-844l2.4-0.4c5.4-0.9,15.6-2.7,30.6-2.8v2     c-15,0.2-24.9,1.9-30.2,2.8l-0.8,0.1v28.2c0,20.2,23.2,28.7,30.5,30.8l2.3-0.7l0.5,1.9L-635.5-781.1z"/>
		</g>
		<g>
			<path class="st6" d="M-635.4-781.1l0.1-2c0.6-0.2,1.3-0.3,2.4-0.7c8.7-2.9,29-11.5,29-30.2v-27.7c-6-1.1-16-3.3-31-3.3v-2     c16,0,26.9,2.3,32.1,3.4l0.9,0.2v29.4c0,20-21.3,29.1-30.4,32.1C-633.5-781.6-634.8-781.3-635.4-781.1z"/>
		</g>
	</g>
	<path class="st0" d="M-628.2-843.2c13.1,0,18.9,7.8,18.9,15.5c0,4.8-2.1,8.8-5.9,11.5c5.6,6.3,9,14.9,10,24.8h-23.9   c-1-13.8-3.9-19.2-10.1-19.2v19.2h-23v-51.9L-628.2-843.2L-628.2-843.2z M-639.2-822.6h0.6c4.2,0,6.2-1.5,6.2-4.9   c0-2.2-1.1-5.2-5.4-5.2h-1.4C-639.2-832.7-639.2-822.6-639.2-822.6z"/>
</g>
<g>
	<path class="st2" d="M-537.1-778c0,2.6-8.6,4.8-19.1,4.8s-19.1-2.2-19.1-4.8s8.6-4.9,19.2-4.9C-545.5-782.9-537.1-780.6-537.1-778z   "/>
	<g>
		<path class="st10" d="M-520.5-814c0,27.4-35.7,35.8-35.7,35.8s-35.7-8.5-35.7-35.8c0-9.4,0-32,0-32s12.7-3.8,35.7-3.8    s35.7,3.8,35.7,3.8S-520.5-820.8-520.5-814z"/>
		<path class="st11" d="M-555.9-849.8c23,0,35,3.8,35,3.8s0,25.2,0,32c0,27.4-35,35.8-35,35.8V-849.8z"/>
		<g>
			<path class="st12" d="M-556.2-841.8c12.8,0,22.2,1.2,27.7,2.2c0,7.9,0,21-0.1,25.6c0,8.1-4.4,15.2-13.1,20.8     c-5.8,3.8-11.7,5.9-14.4,6.7c-6.4-2-27.7-10.1-27.7-27.5v-25.6C-578.9-840.6-569-841.8-556.2-841.8 M-556.2-849.8     c-23,0-35.6,3.8-35.6,3.8s0,22.6,0,32c0,27.1,35.6,35.8,35.6,35.8h-0.1c0.5,0,35.7-8.5,35.8-35.8c0-6.8,0.1-32,0.1-32     S-533.2-849.8-556.2-849.8L-556.2-849.8z"/>
		</g>
		<g>
			<path class="st13" d="M-556.5-781.1l-0.3-0.2c-7.5-2.2-32-11.2-32-32.8V-844l2.4-0.4c5.4-0.9,15.6-2.7,30.6-2.8v2     c-15,0.2-24.9,1.9-30.2,2.8l-0.8,0.1v28.2c0,20.2,23.2,28.7,30.5,30.8l2.3-0.7l0.5,1.9L-556.5-781.1z"/>
		</g>
		<g>
			<path class="st14" d="M-556.4-781.1l0.1-2c0.6-0.2,1.3-0.3,2.4-0.7c8.7-2.9,29-11.5,29-30.2v-27.7c-6-1.1-16-3.3-31-3.3v-2     c16,0,26.9,2.3,32.1,3.4l0.9,0.2v29.4c0,20-21.3,29.1-30.4,32.1C-554.5-781.6-555.8-781.3-556.4-781.1z"/>
		</g>
	</g>
</g>
<path class="st1" d="M-551.8-840.3c11,0,15.9,6.6,15.9,13.1c0,4-1.8,7.5-5,9.7c4.7,5.3,7.6,12.6,8.4,20.9h-20  c-0.8-11.6-3.3-16.2-8.5-16.2v16.2h-19.4v-43.7H-551.8z M-561-822.9h0.5c3.5,0,5.2-1.3,5.2-4.1c0-1.9-0.9-4.3-4.6-4.3h-1.2  L-561-822.9L-561-822.9z"/>
<g>
	<g>
		<path class="st0" d="M-895.5-846.9l-1.8,7l7,1.8l1.8-7L-895.5-846.9z M-892.4-841.6l-1.4-0.4l0.4-1.4l1.4,0.4L-892.4-841.6z"/>
		<path class="st0" d="M-900.7-846.1c1.8,0,2.6,1.1,2.6,2.2c0,0.7-0.3,1.2-0.8,1.6c0.8,0.9,1.2,2.1,1.4,3.5h-3.3    c-0.1-1.9-0.5-2.7-1.4-2.7v2.7h-3.2v-7.2h4.7V-846.1z M-902.2-843.2L-902.2-843.2c0.7,0,0.9-0.2,0.9-0.7c0-0.3-0.2-0.7-0.8-0.7    h-0.2L-902.2-843.2L-902.2-843.2z"/>
		<path class="st0" d="M-883.2-846.1c2.3,0,2.8,1.2,2.8,2c0,0.6-0.2,1.1-0.9,1.5c0.9,0.5,1.1,1,1.1,1.7c0,1.1-0.8,2-2.5,2h-5v-7.2    H-883.2z M-884.5-843.2L-884.5-843.2c0.8,0,1-0.2,1-0.7c0-0.4-0.2-0.7-0.8-0.7h-0.2V-843.2z M-884.5-840.5L-884.5-840.5    c0.8,0,1.1-0.2,1.1-0.7s-0.2-0.8-0.9-0.8h-0.2V-840.5L-884.5-840.5z"/>
		<path class="st0" d="M-879.3-846.1h3.2v5.4h2.8v1.8h-6V-846.1z"/>
		<path class="st0" d="M-872.3-846.1v7.2h7.2v-7.2H-872.3z M-868-841.8h-1.4v-1.4h1.4V-841.8z"/>
		<path class="st0" d="M-864.2-846.1h3.5l1.1,1.3l1-1.3h3.5l-2.7,3.5l2.9,3.7h-3.5l-1.1-1.4l-1.1,1.4h-3.5l2.8-3.7L-864.2-846.1z"/>
	</g>
	<text transform="matrix(1 0 0 1 -893.0818 -830.4132)" style="font-family:'GothamBold'; font-size:7px; letter-spacing:1;">WIKI</text>
</g>
<rect x="-909.4" y="-850.3" class="st16" width="58.4" height="23.3"/>
<g>
	<g>
		<g>
			<path class="st0" d="M-1127.2-551.1l-5,19.4l19.4,5l5-19.4L-1127.2-551.1z M-1118.6-536.5l-3.8-1l1-3.8l3.8,1L-1118.6-536.5z"/>
			<path class="st0" d="M-1141.8-548.9c5,0,7.3,3,7.3,6c0,1.9-0.8,3.4-2.3,4.4c2.1,2.4,3.5,5.7,3.9,9.6h-9.2     c-0.4-5.3-1.5-7.4-3.9-7.4v7.4h-8.9v-20H-1141.8z M-1146-541h0.2c1.6,0,2.4-0.6,2.4-1.9c0-0.9-0.4-2-2.1-2h-0.5V-541z"/>
			<path class="st0" d="M-1093.3-548.9c6.5,0,7.8,3.3,7.8,5.6c0,1.6-0.6,3.1-2.6,4.3c2.5,1.3,3.1,2.9,3.1,4.6c0,3.1-2.2,5.5-6.8,5.5     h-14v-20H-1093.3L-1093.3-548.9z M-1096.9-541h0.2c1.9,0,2.7-0.5,2.7-2c0-1.1-0.5-1.9-2.3-1.9h-0.5v3.9H-1096.9z M-1096.9-533.3     h0.3c2,0,2.8-0.6,2.8-2.1c0-1.3-0.6-2.3-2.5-2.3h-0.6V-533.3L-1096.9-533.3z"/>
			<path class="st0" d="M-1082.3-548.9h8.9v15h7.8v5h-16.6L-1082.3-548.9L-1082.3-548.9z"/>
			<path class="st0" d="M-1062.9-548.9v20h20v-20H-1062.9z M-1051-537h-3.9v-3.9h3.9V-537z"/>
			<path class="st0" d="M-1040.5-548.9h9.7l3,3.7l2.8-3.7h9.6l-7.6,9.8l8.1,10.2h-9.7l-3.2-4l-3.1,4h-9.6l7.8-10.1L-1040.5-548.9z"/>
		</g>
		
			<text transform="matrix(1 0 0 1 -1120.677 -505.3954)" style="font-family:'GothamBold'; font-size:19.4117px; letter-spacing:4;">WIKI</text>
	</g>
	<rect x="-1165.8" y="-560.6" class="st17" width="161.8" height="64.7"/>
</g>
<g>
	<g>
		<path class="st0" d="M-954-744l-3.1,12l12,3.1l3.1-12L-954-744z M-948.6-735l-2.3-0.6l0.6-2.3l2.3,0.6L-948.6-735z"/>
		<path class="st0" d="M-963-742.7c3.1,0,4.5,1.9,4.5,3.7c0,1.1-0.5,2.1-1.4,2.7c1.3,1.5,2.1,3.6,2.4,5.9h-5.7    c-0.2-3.3-0.9-4.6-2.4-4.6v4.6h-5.5v-12.4L-963-742.7L-963-742.7z M-965.6-737.7L-965.6-737.7c1.1,0,1.6-0.4,1.6-1.2    c0-0.5-0.3-1.2-1.3-1.2h-0.3V-737.7L-965.6-737.7z"/>
		<path class="st0" d="M-932.9-742.7c4,0,4.8,2,4.8,3.5c0,1-0.4,1.9-1.6,2.7c1.6,0.8,1.9,1.8,1.9,2.8c0,1.9-1.3,3.4-4.2,3.4h-8.7    v-12.4H-932.9z M-935.2-737.8h0.1c1.2,0,1.6-0.3,1.6-1.2c0-0.7-0.3-1.2-1.4-1.2h-0.3L-935.2-737.8L-935.2-737.8z M-935.2-733h0.2    c1.3,0,1.7-0.3,1.7-1.3c0-0.8-0.4-1.4-1.5-1.4h-0.4L-935.2-733L-935.2-733z"/>
		<path class="st0" d="M-926.1-742.7h5.5v9.3h4.8v3.1h-10.3V-742.7z"/>
		<path class="st0" d="M-914.1-742.7v12.4h12.4v-12.4H-914.1z M-906.7-735.3h-2.4v-2.4h2.4V-735.3z"/>
		<path class="st0" d="M-900.2-742.7h6l1.8,2.3l1.7-2.3h6l-4.7,6.1l5,6.3h-6l-2-2.5l-1.9,2.5h-6l4.8-6.3L-900.2-742.7z"/>
	</g>
	<text transform="matrix(1 0 0 1 -971.5047 -716.2021)" style="font-family:'GothamBold'; font-size:11.4604px; letter-spacing:2;">TEMPLATE</text>
	<rect x="-977.9" y="-749.9" class="st16" width="100.2" height="40.1"/>
</g>
<path class="st0" d="M-902.2-823.2c2.7,0,3.9,1.6,3.9,3.2c0,1-0.4,1.8-1.2,2.4c1.2,1.3,1.9,3.1,2.1,5.1h-4.9c-0.2-2.9-0.8-4-2.1-4v4  h-4.8v-10.7H-902.2z M-904.4-818.9h0.1c0.9,0,1.3-0.3,1.3-1c0-0.5-0.2-1.1-1.1-1.1h-0.3V-818.9z"/>
<text transform="matrix(1 0 0 1 -894.2274 -812.4917)" style="font-family:'GothamBook'; font-size:10.6135px;">WIKI</text>
<text transform="matrix(1 0 0 1 -906.2925 -784.8817)" style="font-family:'GothamBook'; font-size:5.5747px;">WIKI</text>
<path class="st0" d="M-898.4-803.2c2.7,0,3.9,1.6,3.9,3.2c0,1-0.4,1.8-1.2,2.4c1.2,1.3,1.9,3.1,2.1,5.1h-4.9c-0.2-2.9-0.8-4-2.1-4v4  h-4.8v-10.7H-898.4z M-900.6-798.9L-900.6-798.9c1,0,1.4-0.3,1.4-1c0-0.5-0.2-1.1-1.1-1.1h-0.3V-798.9z"/>
<rect x="-909" y="-806.1" class="st18" width="18.9" height="25.6"/>
<path class="st2" d="M-408.6-756.5c0,3.7-12.2,6.8-27.2,6.8s-27.1-3.1-27.1-6.8c0-3.7,12.2-7,27.2-7S-408.6-760.3-408.6-756.5z"/>
<path class="st19" d="M-384.9-807.6c0,38.9-51,50.8-51,50.8s-51-12.1-51-50.8c0-13.4,0-45.4,0-45.4s18.3-5.4,51-5.4s51,5.4,51,5.4  S-384.9-817.3-384.9-807.6z"/>
<path class="st20" d="M-435.9-858.4c33,0,51,5.4,51,5.4s0,35.7,0,45.4c0,38.9-51,50.8-51,50.8V-858.4z"/>
<g>
	<g>
		<path class="st21" d="M-435.6-853c22.9,0,38.5,2.8,45.4,4.3c0,9.8,0,33.5,0,41.2c0,13.8-7.3,25.5-21.7,34.8    c-10.1,6.5-20.3,9.6-23.5,10.5c-7.3-2.1-45.4-14.5-45.4-45.2v-41.2C-473.9-850.3-458.5-853-435.6-853 M-435.9-858.4    c-32.7,0-51,5.4-51,5.4s0,32.1,0,45.4c0,38.5,51,50.8,51,50.8h0.1c0.7,0,50.8-12,50.9-50.8c0-9.7-0.1-45.4-0.1-45.4    S-403.2-858.4-435.9-858.4L-435.9-858.4z"/>
	</g>
</g>
<path class="st22" d="M-410.1-773.8c-10.5,7.3-22.3,10.6-26.1,11.7c-3.8-1.1-44.1-12.7-45.1-45.5v-41.2c7-1.2,21.5-4,44.7-4.3  c22.9-0.3,38.3,2.8,45.3,4.3v36.9"/>
<path class="st23" d="M-435.9-853.2c22.9,0,38.6,2.8,45.6,4.3v41.2c0,31.6-37.6,43.1-45.1,45.2"/>
<path class="st0" d="M-726.6-664.6c12.2,0,17.6,7.3,17.6,14.5c0,4.5-1.9,8.3-5.5,10.7c5.2,5.9,8.4,13.9,9.4,23.2h-22.2  c-0.9-12.9-3.6-17.9-9.4-17.9v17.9h-21.4v-48.4L-726.6-664.6L-726.6-664.6z M-736.8-645.3h0.6c3.9,0,5.8-1.4,5.8-4.5  c0-2.1-1-4.8-5.1-4.8h-1.3V-645.3z"/>
<g>
	<g>
		<defs>
			<path id="SVGID_1_" d="M-574.7-277.3h-44c-8,0-14.6-6.6-14.6-14.6v-44c0-8,6.6-14.6,14.6-14.6h44c8,0,14.6,6.6,14.6,14.6v44     C-560.1-283.9-566.7-277.3-574.7-277.3z"/>
		</defs>
		<clipPath id="SVGID_2_">
			<use xlink:href="#SVGID_1_" style="overflow:visible;"/>
		</clipPath>
		<rect x="-633.3" y="-350.5" class="st24" width="73.3" height="73.3"/>
	</g>
	<g>
		<defs>
			<path id="SVGID_3_" d="M-574.7-277.3h-44c-8,0-14.6-6.6-14.6-14.6v-44c0-8,6.6-14.6,14.6-14.6h44c8,0,14.6,6.6,14.6,14.6v44     C-560.1-283.9-566.7-277.3-574.7-277.3z"/>
		</defs>
		<clipPath id="SVGID_4_">
			<use xlink:href="#SVGID_3_" style="overflow:visible;"/>
		</clipPath>
		<path class="st25" d="M-613.1-341.5l-11.3,44.1l44.1,11.4l11.4-44.1L-613.1-341.5z M-593.5-308.4l-8.6-2.2l2.2-8.6l8.6,2.2    L-593.5-308.4z"/>
	</g>
</g>
<g>
	<path class="st19" d="M-661.3-315.1c0,26-33.9,34-33.9,34s-33.9-8.1-33.9-34c0-8.9,0-30.4,0-30.4s12-3.6,33.9-3.6   c21.9,0,33.9,3.6,33.9,3.6S-661.3-321.6-661.3-315.1z"/>
	<g>
		<path class="st2" d="M-677-280.9c0,2.5-8.1,4.6-18.2,4.6c-10.1,0-18.1-2.1-18.1-4.6s8.2-4.7,18.2-4.7S-677-283.4-677-280.9z"/>
		<path class="st20" d="M-694.8-349.1c21.8,0,33.2,3.6,33.2,3.6s0,23.9,0,30.4c0,26-33.2,34-33.2,34V-349.1z"/>
		<g>
			<path class="st26" d="M-695.2-346.3c16.1,0,26.8,2,31.1,3c0,6.1,0,22.9,0,28.2c0,22-26.9,30-30.9,31.1c-4.4-1.3-31-9.7-31-31.1     v-28.2C-722.4-344.2-711.3-346.3-695.2-346.3 M-695.2-349.1c-21.8,0-33.8,3.6-33.8,3.6s0,21.4,0,30.4c0,25.7,33.8,34,33.8,34     h-0.1c0.5,0,33.9-8,34-34c0-6.5,0.1-30.4,0.1-30.4S-673.4-349.1-695.2-349.1L-695.2-349.1z"/>
		</g>
		<g>
			<path class="st27" d="M-695.5-283.8l-0.3-0.1c-7.2-2.1-30.4-10.6-30.4-31.1v-28.4l2.3-0.4c5.1-0.9,14.8-2.5,29-2.7v1.9     c-14.2,0.2-23.6,1.8-28.7,2.7l-0.7,0.1v26.7c0,19.2,22.1,27.2,29,29.3l2.7,1.2L-695.5-283.8z"/>
		</g>
		<g>
			<path class="st28" d="M-695.5-283.8l0.2-2c0.6-0.2,1.2-0.3,2.3-0.7c8.2-2.7,27.6-10.9,27.6-28.7v-26.3     c-5.7-1.1-15.2-3.1-29.4-3.1v-1.9c15.2,0,25.5,2.2,30.5,3.3l0.8,0.2v27.9c0,19-20.2,27.6-28.9,30.5     C-693.5-284.4-694.8-284-695.5-283.8z"/>
		</g>
	</g>
	<g>
		<g>
			<defs>
				<path id="SVGID_5_" d="M-681.7-297h-26.2c-4.8,0-8.7-3.9-8.7-8.7v-26.2c0-4.8,3.9-8.7,8.7-8.7h26.2c4.8,0,8.7,3.9,8.7,8.7v26.2      C-673-300.9-676.9-297-681.7-297z"/>
			</defs>
			<clipPath id="SVGID_6_">
				<use xlink:href="#SVGID_5_" style="overflow:visible;"/>
			</clipPath>
			<rect x="-716.7" y="-340.6" class="st29" width="43.6" height="43.6"/>
		</g>
		<g>
			<defs>
				<path id="SVGID_7_" d="M-681.7-297h-26.2c-4.8,0-8.7-3.9-8.7-8.7v-26.2c0-4.8,3.9-8.7,8.7-8.7h26.2c4.8,0,8.7,3.9,8.7,8.7v26.2      C-673-300.9-676.9-297-681.7-297z"/>
			</defs>
			<clipPath id="SVGID_8_">
				<use xlink:href="#SVGID_7_" style="overflow:visible;"/>
			</clipPath>
			<path class="st30" d="M-704.6-335.3l-6.8,26.3l26.3,6.8l6.8-26.3L-704.6-335.3z M-692.9-315.5l-5.1-1.3l1.3-5.1l5.1,1.3     L-692.9-315.5z"/>
		</g>
	</g>
</g>
<path class="st19" d="M-90.8-123.4c0,85.7-111.6,112-111.6,112S-314-38.1-314-123.4c0-29.4,0-100,0-100s39.6-11.9,111.6-11.9  s111.7,11.8,111.7,11.8S-90.8-144.8-90.8-123.4z"/>
<path class="st2" d="M-142.6-10.9c0,8.2-26.8,15.1-59.8,15.1s-59.7-6.8-59.7-15.1s26.9-15.4,59.9-15.4S-142.6-19.2-142.6-10.9z"/>
<path class="st20" d="M-201.4-235.4c71.9,0,109.4,11.9,109.4,11.9s0,78.7,0,100c0,85.7-109.4,112-109.4,112L-201.4-235.4  L-201.4-235.4z"/>
<g>
	<path class="st26" d="M-202.6-226.1c53,0,88.3,6.7,102.3,9.9c0,20-0.1,75.4-0.2,92.7c-0.1,72.3-88.6,98.8-101.9,102.3   c-14.7-4.1-102.2-32-102.2-102.3v-92.7C-292.1-219.4-255.6-226.1-202.6-226.1 M-202.6-235.4c-71.9,0-111.4,11.9-111.4,11.9   s0,70.6,0,100c0,84.8,111.4,112,111.4,112h-0.3c1.5,0,111.7-26.5,111.8-112c0-21.3,0.2-100,0.2-100S-130.6-235.4-202.6-235.4   L-202.6-235.4z"/>
</g>
<g>
	<path class="st27" d="M-203.4-20.5l-1.1-0.5c-23.6-6.9-100.1-34.9-100.1-102.5v-93.3l7.6-1.3c16.9-2.9,48.7-8.4,95.6-8.9v6.3   c-46.9,0.5-77.8,5.9-94.5,8.8l-2.4,0.4v88c0,63.1,72.7,89.7,95.4,96.4l8.8,3.8L-203.4-20.5z"/>
</g>
<g>
	<path class="st28" d="M-203.4-20.5l0.5-6.7c2-0.6,4-1,7.6-2.2c27.1-8.9,90.8-36,90.8-94.4v-86.7c-18.8-3.6-50-10.2-96.9-10.2v-6.3   c50,0,84,7.3,100.4,10.7l2.7,0.7v91.8c0,62.5-66.7,91-95.1,100.4C-197-22.2-201.4-21.1-203.4-20.5z"/>
</g>
<g>
	<g>
		<defs>
			<path id="SVGID_9_" d="M-158.3-63.8h-86.2c-15.8,0-28.7-12.9-28.7-28.7v-86.2c0-15.8,12.9-28.7,28.7-28.7h86.2     c15.8,0,28.7,12.9,28.7,28.7v86.2C-129.5-76.8-142.5-63.8-158.3-63.8z"/>
		</defs>
		<clipPath id="SVGID_10_">
			<use xlink:href="#SVGID_9_" style="overflow:visible;"/>
		</clipPath>
		<rect x="-273.3" y="-207.6" class="st31" width="143.7" height="143.7"/>
	</g>
	<g>
		<defs>
			<path id="SVGID_11_" d="M-158.3-63.8h-86.2c-15.8,0-28.7-12.9-28.7-28.7v-86.2c0-15.8,12.9-28.7,28.7-28.7h86.2     c15.8,0,28.7,12.9,28.7,28.7v86.2C-129.5-76.8-142.5-63.8-158.3-63.8z"/>
		</defs>
		<clipPath id="SVGID_12_">
			<use xlink:href="#SVGID_11_" style="overflow:visible;"/>
		</clipPath>
		<path class="st32" d="M-233.5-189.9l-22.3,86.6l86.6,22.3l22.3-86.6L-233.5-189.9z M-195.1-124.8l-16.9-4.3l4.3-16.9l16.9,4.3    L-195.1-124.8z"/>
	</g>
</g>
<path class="st0" d="M21,9.3L9.2,55.1L55,66.9l11.8-45.8L21,9.3z M41.3,43.7l-8.9-2.3l2.3-8.9l8.9,2.3L41.3,43.7z"/>
<path class="st19" d="M-490.5-151.6c0,51.5-67,67.2-67,67.2s-67-16-67-67.2c0-17.7,0-60.1,0-60.1s23.8-7.2,67-7.2s67,7.2,67,7.2  S-490.5-164.4-490.5-151.6z"/>
<g>
	<path class="st2" d="M-521.6-84.1c0,5-16.1,9-35.9,9s-35.9-4.1-35.9-9c0-5,16.1-9.3,35.9-9.3S-521.6-89-521.6-84.1z"/>
	<path class="st20" d="M-556.9-218.8c43.2,0,65.7,7.2,65.7,7.2s0,47.3,0,60.1c0,51.5-65.7,67.2-65.7,67.2V-218.8z"/>
	<g>
		<path class="st26" d="M-557.6-213.2c31.8,0,53,4,61.4,5.9c0,12-0.1,45.2-0.1,55.7c0,43.4-53.2,59.3-61.2,61.4    c-8.8-2.5-61.4-19.2-61.4-61.4v-55.7C-611.3-209.2-589.4-213.2-557.6-213.2 M-557.6-218.8c-43.2,0-66.9,7.2-66.9,7.2    s0,42.4,0,60.1c0,50.9,66.9,67.2,66.9,67.2h-0.2c0.9,0,67.1-15.9,67.1-67.2c0-12.8,0.1-60.1,0.1-60.1S-514.4-218.8-557.6-218.8    L-557.6-218.8z"/>
	</g>
	<g>
		<path class="st27" d="M-558.1-89.8l-0.6-0.3c-14.2-4.2-60.1-20.9-60.1-61.5v-56l4.5-0.8c10.1-1.8,29.2-5,57.4-5.3v3.8    c-28.2,0.3-46.7,3.5-56.7,5.3l-1.4,0.2v52.9c0,37.9,43.6,53.9,57.3,57.9l5.3,2.3L-558.1-89.8z"/>
	</g>
	<g>
		<path class="st28" d="M-558.1-89.8l0.3-4c1.2-0.3,2.4-0.6,4.6-1.3c16.3-5.4,54.5-21.6,54.5-56.7v-52c-11.3-2.1-30-6.1-58.2-6.1    v-3.8c30,0,50.4,4.4,60.3,6.4l1.6,0.4v55.1c0,37.5-40,54.6-57.1,60.2C-554.3-90.8-556.9-90.2-558.1-89.8z"/>
	</g>
</g>
<path class="st1" d="M-699.6-154.5l-3.1,12l12,3.1l3.1-12L-699.6-154.5z M-694.1-145.3l-2.6-0.7l0.7-2.6l2.6,0.7L-694.1-145.3z"/>
</svg>